PathFileType	4	(X/Y/Z)	/Users/itak/Documents/Research/Walk-IL/dataset/trc/00291_00010.trc
DataRate	CameraRate	NumFrames	NumMarkers	Units	OrigDataRate	OrigDataStartFrame	OrigNumFrames
100.000000	100.000000	4	54	mm	100.000000	410	656
Frame#	Time	RPSI			LPSI			L3			STRN			T10			C7			CLAV			RBAK			LBAK			LSHO			LUPA			LAEL			LAOL			LWTS			LWPS			LFRA			LHPS			LHTS			RSHO			RUPA			RAEL			RAOL			RWTS			RWPS			RFRA			RHTS			RHPS			RBHD			LFHD			RFHD			LBHD			RHIP			RASI			LASI			LKNE			LTHI			LANK			LTIP			LTOE			LMT1			LMT5			LHEE			RKNE			RTHI			RANK			RTIP			RTOE			RMT1			RMT5			RHEE			LHIP			RIFD			LIFD			*53			
		X1	Y1	Z1	X2	Y2	Z2	X3	Y3	Z3	X4	Y4	Z4	X5	Y5	Z5	X6	Y6	Z6	X7	Y7	Z7	X8	Y8	Z8	X9	Y9	Z9	X10	Y10	Z10	X11	Y11	Z11	X12	Y12	Z12	X13	Y13	Z13	X14	Y14	Z14	X15	Y15	Z15	X16	Y16	Z16	X17	Y17	Z17	X18	Y18	Z18	X19	Y19	Z19	X20	Y20	Z20	X21	Y21	Z21	X22	Y22	Z22	X23	Y23	Z23	X24	Y24	Z24	X25	Y25	Z25	X26	Y26	Z26	X27	Y27	Z27	X28	Y28	Z28	X29	Y29	Z29	X30	Y30	Z30	X31	Y31	Z31	X32	Y32	Z32	X33	Y33	Z33	X34	Y34	Z34	X35	Y35	Z35	X36	Y36	Z36	X37	Y37	Z37	X38	Y38	Z38	X39	Y39	Z39	X40	Y40	Z40	X41	Y41	Z41	X42	Y42	Z42	X43	Y43	Z43	X44	Y44	Z44	X45	Y45	Z45	X46	Y46	Z46	X47	Y47	Z47	X48	Y48	Z48	X49	Y49	Z49	X50	Y50	Z50	X51	Y51	Z51	X52	Y52	Z52	X53	Y53	Z53	X54	Y54	Z54	

411	4.1	498.1460571289062	973.1547241210938	-76.02911376953125	671.2951049804688	989.1931762695312	-59.58743667602539	583.824462890625	1058.280395507812	-52.2390022277832	573.4244384765625	1227.688842773438	210.5445098876953	583.403076171875	1177.14306640625	-61.55628967285156	606.4520874023438	1418.18359375	-3.486035585403442	586.1875	1329.736694335938	152.0429229736328	525.6514282226562	1287.909301757812	-65.47395324707031	708.2498168945312	1377.042846679688	-12.47101020812988	753.7427368164062	1379.582641601562	81.02432250976562	832.9189453125	1266.514770507812	51.83896636962891	857.1026000976562	1064.54541015625	52.72677612304688	796.5791625976562	1045.773559570312	-8.009881973266602	840.114013671875	852.289794921875	151.6206359863281	893.5838012695312	841.061279296875	104.2065963745117	874.2156982421875	962.508056640625	68.49607849121094	904.1890869140625	756.6210327148438	118.1848526000977	879.6638793945312	760.9058227539062	179.2562561035156	443.6992492675781	1404.221069335938	52.690185546875	371.016357421875	1350.781372070312	39.4771614074707	313.6800842285156	1083.96533203125	24.92798042297363	401.7192993164062	1072.895751953125	-9.377849578857422	356.7796325683594	860.2367553710938	127.7258377075195	283.0309448242188	859.7257080078125	80.771240234375	298.8564453125	1017.380310058594	48.56421661376953	318.2932739257812	748.5053100585938	159.5920867919922	269.3586730957031	754.7183227539062	107.0366668701172	557.1786499023438	1568.610229492188	0.9806146025657654	613.7984619140625	1615.727905273438	201.1558837890625	526.3543701171875	1611.353881835938	169.4189147949219	694.2562255859375	1565.63134765625	52.59746551513672	389.2378540039062	916.2330322265625	16.31686592102051	454.662353515625	932.5162963867188	141.5255279541016	705.167724609375	954.5581665039062	152.8891296386719	757.850830078125	487.7354736328125	120.2543640136719	772.3380126953125	630.3114013671875	102.0040588378906	771.0148315429688	37.87289428710938	14.67270946502686	775.7766723632812	257.876220703125	70.32341766357422	668.3211669921875	34.30652618408203	205.2027282714844	644.146728515625	30.15057373046875	127.9282760620117	757.4363403320312	32.70367431640625	136.7231750488281	722.1238403320312	38.41150283813477	-41.86851501464844	447.8556518554688	475.951904296875	182.0685577392578	406.4559326171875	719.6617431640625	119.1648483276367	483.9325866699219	203.5285186767578	-167.6524047851562	465.2232055664062	372.4527893066406	125.4435653686523	566.2183227539062	58.32210922241211	-59.48836135864258	594.335693359375	105.0989990234375	-102.1269912719727	477.5939331054688	110.2035446166992	-116.3028030395508	523.9966430664062	249.6512145996094	-201.8705902099609	766.049560546875	954.1962890625	18.6349925994873	323.6549987792969	675.33935546875	135.6580505371094	874.6764526367188	671.6048583984375	173.8019409179688	nan	nan	nan	
412	4.11	500.3182373046875	973.11474609375	-69.71267700195312	673.2129516601562	989.26611328125	-51.74054718017578	586.7601318359375	1057.980712890625	-45.12580871582031	572.6329345703125	1228.177856445312	218.1059112548828	587.2474975585938	1177.631591796875	-54.03720092773438	608.9470825195312	1418.607543945312	5.074928283691406	586.2581787109375	1330.221435546875	159.8556060791016	529.61083984375	1288.330688476562	-58.63779449462891	711.0995483398438	1377.726440429688	-2.20981502532959	754.8086547851562	1380.37353515625	92.03083038330078	834.7926635742188	1267.32421875	65.23194122314453	859.534423828125	1065.5361328125	68.74579620361328	800.5689697265625	1045.884155273438	6.684942245483398	840.8129272460938	855.91748046875	171.8340911865234	895.4152221679688	843.67822265625	125.9633865356445	876.54833984375	964.0785522460938	86.86155700683594	906.1228637695312	759.7614135742188	142.4530029296875	880.1682739257812	765.5379638671875	202.7987976074219	445.2429809570312	1404.405883789062	57.98139572143555	373.0279235839844	1351.155395507812	42.91154479980469	315.3966979980469	1084.721923828125	24.09136390686035	404.8466796875	1073.477416992188	-6.437841415405273	351.6747131347656	859.25048828125	125.9998168945312	280.5115966796875	860.1340942382812	75.04807281494141	298.9106750488281	1018.035400390625	46.22509765625	309.3460083007812	747.8018188476562	154.4931335449219	263.386962890625	755.545166015625	99.18203735351562	558.9781494140625	1569.903686523438	10.26135921478271	612.8259887695312	1614.97998046875	211.8610076904297	525.8505859375	1610.6982421875	178.7410125732422	695.31298828125	1566.5927734375	63.64404296875	390.6260986328125	917.2305908203125	22.32999420166016	455.8171691894531	933.4915161132812	147.1143493652344	706.3723754882812	954.69677734375	161.0096282958984	758.1106567382812	487.1347961425781	124.2721939086914	772.6099243164062	629.94921875	107.897575378418	770.6795654296875	38.33974838256836	14.88261318206787	775.6426391601562	257.68017578125	72.30537414550781	668.0667724609375	33.94956970214844	205.5027160644531	643.9375610351562	29.96270179748535	128.0204620361328	757.2826538085938	32.72951507568359	136.7790985107422	721.8922119140625	39.0388298034668	-41.81605529785156	447.2218017578125	479.7440795898438	197.7609710693359	407.0570678710938	722.8199462890625	129.3453369140625	490.3559875488281	196.6165008544922	-143.9912872314453	466.1836853027344	374.2720947265625	143.5771484375	572.8319702148438	59.29672241210938	-26.72410774230957	601.2189331054688	103.5700759887695	-71.82740783691406	484.4178161621094	106.4249572753906	-87.40273284912109	530.2614135742188	241.3150634765625	-180.3920440673828	767.6044311523438	953.905029296875	26.61831092834473	314.6358032226562	674.7440185546875	129.9528045654297	875.732421875	676.0914916992188	199.6153106689453	nan	nan	nan	
413	4.12	502.3876647949219	973.1644287109375	-63.29755020141602	675.0175170898438	989.3431396484375	-43.84936141967773	589.6246948242188	1057.692260742188	-37.88672637939453	571.778564453125	1228.681030273438	225.5708770751953	590.9844360351562	1177.926391601562	-46.40896606445312	611.3020629882812	1418.919799804688	13.56394672393799	586.2426147460938	1330.7412109375	167.5713958740234	533.4862060546875	1288.583374023438	-51.75178146362305	713.7637329101562	1378.310668945312	7.943480968475342	755.7338256835938	1381.13525390625	102.8593902587891	836.4444580078125	1268.101440429688	78.36940765380859	861.6231079101562	1066.526611328125	84.47137451171875	804.1358642578125	1045.979858398438	21.27924728393555	841.093994140625	859.690673828125	191.7879028320312	896.6952514648438	846.3969116210938	147.4256896972656	878.4581909179688	965.70654296875	104.9207458496094	907.38720703125	763.0612182617188	166.4558868408203	880.110595703125	770.3837280273438	226.0364685058594	446.7233581542969	1404.537353515625	63.16181182861328	375.0654296875	1351.49853515625	46.22080993652344	317.0462951660156	1085.569091796875	23.04864883422852	407.7513732910156	1074.086059570312	-3.74143385887146	346.9109191894531	858.587646484375	124.0259475708008	278.4535522460938	860.702392578125	69.33171081542969	299.0666809082031	1018.809265136719	43.69127655029297	301.3686828613281	747.477294921875	149.1814422607422	258.4689636230469	756.4364624023438	91.43191528320312	560.587646484375	1571.161987304688	19.52880668640137	611.6536254882812	1614.079345703125	222.4650726318359	525.1417236328125	1609.920166015625	188.0112152099609	696.1661376953125	1567.510498046875	74.65674591064453	391.9333801269531	918.2175903320312	28.404296875	456.8705749511719	934.3805541992188	152.7229309082031	707.4844360351562	954.7098388671875	169.124755859375	758.2560424804688	486.5083312988281	128.2625579833984	772.765625	629.5453491210938	113.7316589355469	770.3458862304688	38.90901184082031	15.0710391998291	775.4196166992188	257.4906311035156	74.27294921875	667.7802734375	33.57125091552734	205.8136749267578	643.7060546875	29.71855163574219	128.1052093505859	757.1051025390625	32.76926422119141	136.841796875	721.5958862304688	39.66911315917969	-41.72822570800781	446.2611999511719	483.470947265625	212.9243469238281	407.4778747558594	725.9830322265625	139.2384643554688	496.4081115722656	188.7208709716797	-119.4734649658203	466.8625793457031	375.8364562988281	161.5190887451172	578.6061401367188	59.97738647460938	6.83411979675293	607.3291625976562	101.3306579589844	-40.70734405517578	490.5298156738281	102.1244812011719	-57.67876815795898	536.2802734375	231.7454833984375	-158.0750427246094	769.0266723632812	953.55859375	34.72869491577148	306.9025268554688	674.5531005859375	124.2626190185547	876.0408935546875	680.8516845703125	225.2165374755859	nan	nan	nan	
414	4.13	504.382080078125	973.320556640625	-56.78328704833984	676.74609375	989.4210815429688	-35.91070556640625	592.4285278320312	1057.507202148438	-30.54071235656738	570.8558349609375	1229.165405273438	232.9544219970703	594.604736328125	1178.052001953125	-38.68778228759766	613.5346069335938	1419.1494140625	21.99536323547363	586.1275634765625	1331.259033203125	175.2079467773438	537.2669677734375	1288.684448242188	-44.81250762939453	716.2431640625	1378.802001953125	18.00142669677734	756.5205078125	1381.859375	113.528923034668	837.880126953125	1268.841186523438	91.25071716308594	863.3787841796875	1067.505004882812	99.90737915039062	807.283935546875	1046.050659179688	35.75389099121094	840.9810791015625	863.5934448242188	211.4617614746094	897.4329223632812	849.1976318359375	168.5577239990234	879.9533081054688	967.3729858398438	122.668327331543	907.983642578125	766.4974975585938	190.1366271972656	879.5032348632812	775.4132080078125	248.9200592041016	448.1502990722656	1404.604248046875	68.26519012451172	377.1258239746094	1351.8076171875	49.4546012878418	318.64697265625	1086.508544921875	21.88815307617188	410.4323120117188	1074.725341796875	-1.280619144439697	342.5025939941406	858.2064819335938	121.8310699462891	276.8138122558594	861.3895263671875	63.70579528808594	299.3240051269531	1019.694213867188	41.04629135131836	294.4316711425781	747.4269409179688	143.7364959716797	254.6226043701172	757.2968139648438	83.89468383789062	561.9983520507812	1572.365844726562	28.78049087524414	610.295654296875	1613.033081054688	232.9433288574219	524.2328491210938	1609.018310546875	197.2217864990234	696.822265625	1568.381591796875	85.62283325195312	393.1732482910156	919.1812744140625	34.51269912719727	457.8019104003906	935.19287109375	158.4325866699219	708.4583129882812	954.5902099609375	177.2481079101562	758.2965698242188	485.8501281738281	132.20849609375	772.8128662109375	629.07763671875	119.4790954589844	770.0048828125	39.5694465637207	15.23411083221436	775.1171264648438	257.2963256835938	76.21165466308594	667.4714965820312	33.17704391479492	206.1275939941406	643.4546508789062	29.4227123260498	128.1731109619141	756.9013061523438	32.83317184448242	136.9126739501953	721.2318115234375	40.29616165161133	-41.60575485229492	445.0298461914062	487.1046142578125	227.533447265625	407.6968383789062	729.0857543945312	148.7385711669922	502.0437316894531	180.0074615478516	-94.07881164550781	467.2933654785156	377.1795654296875	179.2801818847656	583.2902221679688	60.40621948242188	41.10470581054688	612.4635009765625	98.4720458984375	-8.740654945373535	495.7840576171875	97.46437835693359	-27.19136238098145	542.0675048828125	221.0853729248047	-134.8171234130859	770.3117065429688	953.1652221679688	42.98342514038086	300.5169372558594	674.6642456054688	118.6661148071289	875.61376953125	685.8612670898438	250.5344543457031	nan	nan	nan	
